<?xml version="1.0" encoding="utf-8"?>
<!-- Generator: Adobe Illustrator 26.0.2, SVG Export Plug-In . SVG Version: 6.00 Build 0)  -->
<svg version="1.1" id="Layer_1" xmlns="http://www.w3.org/2000/svg" xmlns:xlink="http://www.w3.org/1999/xlink" x="0px" y="0px"
	 viewBox="0 0 444 515" style="enable-background:new 0 0 444 515;" xml:space="preserve">
<style type="text/css">
	.st0{fill:#FFC2A8;}
	.st1{fill:#9697F6;}
	.st2{fill:#AAC3FF;}
</style>
<polygon class="st0" points="220.5,1 443.5,130 221.5,259 0.5,130 "/>
<polygon class="st1" points="221.5,259 220.5,514 443.5,386 443.5,130 "/>
<polygon class="st2" points="0.5,130 221.5,259 220.5,514 2.5,386 "/>
<path d="M221,1.2L1,130.1v255.8l220,127.9l222-127.9V130.1L221,1.2z M221,20.8l195.9,113.8L221,248.7L26.2,135.1L221,20.8z M18,150
	l195.5,114l-0.9,225.3L18,376.1V150z M229.6,489.3l0.9-226.4L426,149v227.1L229.6,489.3z"/>
</svg>
