<svg id="visual" viewBox="0 0 1920 1080" width="1920" height="1080" xmlns="http://www.w3.org/2000/svg" xmlns:xlink="http://www.w3.org/1999/xlink" version="1.1"><g><g transform="translate(513 191)"><path d="M0 -145.7L145.7 0L0 145.7L-145.7 0Z" fill="#bedeec"></path></g><g transform="translate(1745 699)"><path d="M0 -127L127 0L0 127L-127 0Z" fill="#bedeec"></path></g><g transform="translate(1455 972)"><path d="M0 -140L140 0L0 140L-140 0Z" fill="#bedeec"></path></g><g transform="translate(267 541)"><path d="M0 -41L41 0L0 41L-41 0Z" fill="#bedeec"></path></g><g transform="translate(722 1047)"><path d="M0 -47L47 0L0 47L-47 0Z" fill="#bedeec"></path></g><g transform="translate(772 355)"><path d="M0 -133L133 0L0 133L-133 0Z" fill="#bedeec"></path></g><g transform="translate(1059 882)"><path d="M0 -33L33 0L0 33L-33 0Z" fill="#bedeec"></path></g><g transform="translate(860 48)"><path d="M0 -38L38 0L0 38L-38 0Z" fill="#bedeec"></path></g><g transform="translate(1267 62)"><path d="M0 -104L104 0L0 104L-104 0Z" fill="#bedeec"></path></g><g transform="translate(1168 357)"><path d="M0 -89L89 0L0 89L-89 0Z" fill="#bedeec"></path></g><g transform="translate(157 107)"><path d="M0 -40L40 0L0 40L-40 0Z" fill="#bedeec"></path></g><g transform="translate(380 1015)"><path d="M0 -92L92 0L0 92L-92 0Z" fill="#bedeec"></path></g><g transform="translate(1688 70)"><path d="M0 -130L130 0L0 130L-130 0Z" fill="#bedeec"></path></g><g transform="translate(8 866)"><path d="M0 -25L25 0L0 25L-25 0Z" fill="#bedeec"></path></g><g transform="translate(1452 484)"><path d="M0 -97L97 0L0 97L-97 0Z" fill="#bedeec"></path></g><g transform="translate(826 685)"><path d="M0 -22L22 0L0 22L-22 0Z" fill="#bedeec"></path></g><g transform="translate(516 718)"><path d="M0 -99L99 0L0 99L-99 0Z" fill="#bedeec"></path></g><g transform="translate(1853 977)"><path d="M0 -143L143 0L0 143L-143 0Z" fill="#bedeec"></path></g><g transform="translate(1909 266)"><path d="M0 -122L122 0L0 122L-122 0Z" fill="#bedeec"></path></g><g transform="translate(3 411)"><path d="M0 -116L116 0L0 116L-116 0Z" fill="#bedeec"></path></g></g></svg>