<svg id="visual" viewBox="0 0 1920 1080" width="1920" height="1080" xmlns="http://www.w3.org/2000/svg" xmlns:xlink="http://www.w3.org/1999/xlink" version="1.1"><g><g transform="translate(991 540)"><path d="M0 -145.7L145.7 0L0 145.7L-145.7 0Z" fill="#297EA6"></path></g><g transform="translate(296 700)"><path d="M0 -18L18 0L0 18L-18 0Z" fill="#297EA6"></path></g><g transform="translate(636 791)"><path d="M0 -44L44 0L0 44L-44 0Z" fill="#297EA6"></path></g><g transform="translate(1576 250)"><path d="M0 -64L64 0L0 64L-64 0Z" fill="#297EA6"></path></g><g transform="translate(717 326)"><path d="M0 -117L117 0L0 117L-117 0Z" fill="#297EA6"></path></g><g transform="translate(182 76)"><path d="M0 -46L46 0L0 46L-46 0Z" fill="#297EA6"></path></g><g transform="translate(104 952)"><path d="M0 -105L105 0L0 105L-105 0Z" fill="#297EA6"></path></g><g transform="translate(1756 766)"><path d="M0 -106L106 0L0 106L-106 0Z" fill="#297EA6"></path></g><g transform="translate(123 406)"><path d="M0 -32L32 0L0 32L-32 0Z" fill="#297EA6"></path></g><g transform="translate(988 1050)"><path d="M0 -128L128 0L0 128L-128 0Z" fill="#297EA6"></path></g><g transform="translate(1314 782)"><path d="M0 -104L104 0L0 104L-104 0Z" fill="#297EA6"></path></g><g transform="translate(485 124)"><path d="M0 -140L140 0L0 140L-140 0Z" fill="#297EA6"></path></g><g transform="translate(1065 26)"><path d="M0 -115L115 0L0 115L-115 0Z" fill="#297EA6"></path></g><g transform="translate(1914 166)"><path d="M0 -78L78 0L0 78L-78 0Z" fill="#297EA6"></path></g><g transform="translate(1198 317)"><path d="M0 -41L41 0L0 41L-41 0Z" fill="#297EA6"></path></g><g transform="translate(1542 1062)"><path d="M0 -23L23 0L0 23L-23 0Z" fill="#297EA6"></path></g><g transform="translate(1894 505)"><path d="M0 -57L57 0L0 57L-57 0Z" fill="#297EA6"></path></g><g transform="translate(460 1049)"><path d="M0 -105L105 0L0 105L-105 0Z" fill="#297EA6"></path></g><g transform="translate(1916 1022)"><path d="M0 -97L97 0L0 97L-97 0Z" fill="#297EA6"></path></g><g transform="translate(429 425)"><path d="M0 -123L123 0L0 123L-123 0Z" fill="#297EA6"></path></g></g></svg>